<?xml version="1.0" encoding="UTF-8"?>
<svg id="_Слой_2" data-name="Слой 2" xmlns="http://www.w3.org/2000/svg" xmlns:xlink="http://www.w3.org/1999/xlink" viewBox="0 0 511.14 184.25">
  <defs>
    <linearGradient id="_Безымянный_градиент_2" data-name="Безымянный градиент 2" x1="95.84" y1="41.56" x2="31.99" y2="-27.07" gradientTransform="translate(-4.97 66.98) rotate(-21.5)" gradientUnits="userSpaceOnUse">
      <stop offset="0" stop-color="#641ae6"/>
      <stop offset="1" stop-color="#d926a9"/>
    </linearGradient>
    <linearGradient id="_Безымянный_градиент_20" data-name="Безымянный градиент 20" x1="149.38" y1="263.76" x2="433.78" y2="25.12" gradientUnits="userSpaceOnUse">
      <stop offset="0" stop-color="#d726aa"/>
      <stop offset=".16" stop-color="#cd25ae"/>
      <stop offset=".41" stop-color="#b422bc"/>
      <stop offset=".74" stop-color="#8b1dd1"/>
      <stop offset="1" stop-color="#661ae5"/>
    </linearGradient>
  </defs>
  <path d="m98.92,20.34c-4.98-8.38-16.54-9.73-23.33-2.72l-10.4,10.6-18.06-14.85c2.69-3.92,1.68-9.23-2.12-11.87s-9.23-1.68-11.87,2.12c-3.45,5-.73,11.91,5.21,13.21l-3.17,23.21-14.83-.66c-9.75-.49-17.25,8.47-15.2,17.91-4.37,1.92-6.33,6.93-4.41,11.29s6.93,6.33,11.29,4.41,6.33-6.93,4.41-11.29c-.4-1.02-1.03-1.86-1.82-2.63,2.65-1.53,5.81-1.99,8.75-1.28l7,1.77c.88.24,1.75-.3,1.91-1.15s-.3-1.75-1.15-1.91l-7-1.77c-4.3-1.16-8.95-.22-12.52,2.47-1.04-.38-2.21-.61-3.37-.54-1.65-7.43,4.28-14.39,11.9-14.04l16.26.78c.82.07,1.53-.6,1.64-1.34l3.33-25.05c1.21-.18,2.32-.62,3.32-1.31l19.52,16.04c.61.55,1.56.47,2.11-.14l11.36-11.66c5.34-5.45,14.33-4.37,18.28,2.15-.89.74-1.59,1.71-2.09,2.69-4.44.47-8.37,3-10.84,6.73l-3.91,6.07c-.33.42-.29,1-.13,1.43l8.67,21.99-46.72,18.41-1.38-3.5c-.34-.85-1.25-1.18-2.02-.88-.85.34-1.18,1.25-.88,2.02l1.38,3.5-6.14,2.42c-.85.34-1.18,1.25-.88,2.02l1.58,4.01c1.55,3.92,5.94,5.83,9.86,4.29l53.96-21.26c3.92-1.55,5.83-5.94,4.29-9.86l-1.58-4.01c-.34-.85-1.25-1.18-2.02-.88l-6.31,2.49-8.33-21.14,3.48-5.41c1.63-2.61,4.26-4.44,7.27-5.03-.02,1.19.16,2.4.59,3.51.34.85,1.25,1.18,2.02.88s1.18-1.25.88-2.02c-1.11-2.81.27-5.82,3-6.89s5.87.15,6.98,2.96c1.07,2.73-.15,5.87-2.96,6.98l-.17.07c-.85.34-1.18,1.25-.88,2.02.34.85,1.25,1.18,2.02.88,4.43-1.75,6.52-6.7,4.89-11.09-1.54-4.41-6.36-6.65-10.69-5.14h0ZM11.21,60.41c2.63,1.43,3.65,4.77,2.22,7.4-1.43,2.63-4.77,3.65-7.4,2.22s-3.65-4.77-2.22-7.4c1.61-2.9,5-3.55,7.4-2.22ZM42.03,13.4c-2.73,1.07-5.82-.27-6.89-3s.27-5.82,3-6.89,5.82.27,6.89,3-.27,5.82-3,6.89Zm54.58,47.53l.97,2.47c.87,2.22-.18,4.8-2.48,5.7l-53.96,21.26c-2.22.87-4.8-.18-5.7-2.48l-.97-2.47,62.15-24.49Zm-61.23,4.33l1.18,2.98c.34.85-.11,1.72-.88,2.02-.85.34-1.72-.11-2.02-.88l-1.18-2.98c-.34-.85.11-1.72.88-2.02.73-.39,1.68.03,2.02.88Zm28.58-17.96l-4.41.56-3.59-2.62c-.97-.7-2.33-.17-2.56,1.01l-.67,4.3-3.6,2.6c-1.01.69-.84,2.11.17,2.69l3.89,2.11,1.36,4.19c.35,1.14,1.76,1.47,2.62.64l3.23-3.05,4.44.02c1.19.02,1.96-1.27,1.47-2.26l-1.87-3.99,1.4-4.2c.26-1.09-.75-2.16-1.88-2.02Zm-2.91,5.87c-.15.36-.07.82.06,1.16l1.08,2.23h-2.47c-.41-.05-.83.12-1.11.42l-1.8,1.69-.74-2.37c-.13-.34-.39-.73-.74-.89l-2.24-1.19,2.07-1.5c.31-.22.55-.61.67-1.05l.51-2.46,2.05,1.46c.3.27.75.4,1.21.31l2.54-.31-1.08,2.5Z" style="fill: url(#_Безымянный_градиент_2);"/>
  <g>
    <path d="m102.07,184.25c-8.38,0-15.56-1.8-21.53-5.41-5.97-3.61-10.56-8.77-13.75-15.5-3.19-6.72-4.79-14.73-4.79-24.02,0-6.97.89-13.21,2.68-18.73,1.78-5.52,4.4-10.21,7.84-14.06,3.44-3.86,7.67-6.82,12.69-8.9,5.02-2.07,10.64-3.11,16.86-3.11,5.48,0,10.58.79,15.31,2.36,4.73,1.58,8.79,3.9,12.2,6.97.83.75,1.37,1.54,1.62,2.36.25.83.27,1.6.06,2.3-.21.71-.6,1.29-1.18,1.74-.58.46-1.27.67-2.05.62-.79-.04-1.64-.44-2.55-1.18-3.15-2.74-6.66-4.77-10.52-6.1-3.86-1.33-8.11-1.99-12.76-1.99-6.89,0-12.72,1.47-17.49,4.42-4.77,2.95-8.38,7.24-10.83,12.88-2.45,5.64-3.67,12.45-3.67,20.41s1.22,14.89,3.67,20.54c2.45,5.64,6.06,9.94,10.83,12.88,4.77,2.95,10.6,4.42,17.49,4.42,4.56,0,8.79-.68,12.69-2.05,3.9-1.37,7.47-3.42,10.7-6.16.91-.75,1.76-1.12,2.55-1.12s1.45.23,1.99.68c.54.46.93,1.04,1.18,1.74.25.71.27,1.43.06,2.18-.21.75-.68,1.45-1.43,2.12-3.57,3.24-7.7,5.66-12.38,7.28-4.69,1.62-9.85,2.43-15.49,2.43Z" style="fill: url(#_Безымянный_градиент_20);"/>
    <path d="m151.23,184c-1.24,0-2.2-.33-2.86-1-.67-.66-1-1.62-1-2.86v-81.52c0-1.33.33-2.3,1-2.92.66-.62,1.62-.93,2.86-.93,1.16,0,2.07.31,2.74.93.66.62,1,1.6,1,2.92v38.33h-1.49c1.66-4.98,4.5-8.75,8.52-11.33,4.02-2.57,8.65-3.86,13.88-3.86,4.81,0,8.81.87,12.01,2.61,3.19,1.74,5.58,4.36,7.16,7.84,1.58,3.49,2.36,7.8,2.36,12.94v34.97c0,1.24-.33,2.2-1,2.86-.67.66-1.58,1-2.74,1-1.24,0-2.2-.33-2.86-1-.67-.66-1-1.62-1-2.86v-34.35c0-6.05-1.2-10.47-3.61-13.25-2.41-2.78-6.22-4.17-11.45-4.17-5.97,0-10.77,1.85-14.37,5.54-3.61,3.69-5.41,8.65-5.41,14.87v31.36c0,2.57-1.24,3.86-3.73,3.86Z" style="fill: url(#_Безымянный_градиент_20);"/>
    <path d="m220.92,107.34c-1.74,0-3.09-.46-4.04-1.37-.95-.91-1.43-2.2-1.43-3.86s.48-2.92,1.43-3.8c.95-.87,2.3-1.31,4.04-1.31s3.09.44,4.04,1.31c.95.87,1.43,2.14,1.43,3.8s-.48,2.95-1.43,3.86c-.96.91-2.3,1.37-4.04,1.37Zm0,76.42c-1.24,0-2.2-.37-2.86-1.12-.67-.75-1-1.74-1-2.99v-53.27c0-1.33.33-2.32,1-2.99s1.62-1,2.86-1c1.16,0,2.07.33,2.74,1,.66.67,1,1.66,1,2.99v53.27c0,1.25-.31,2.24-.93,2.99-.62.75-1.56,1.12-2.8,1.12Z" style="fill: url(#_Безымянный_градиент_20);"/>
    <path d="m262.11,184.25c-5.56,0-9.85-1.74-12.88-5.23-3.03-3.48-4.54-8.42-4.54-14.81v-65.59c0-1.33.33-2.3,1-2.92.66-.62,1.62-.93,2.86-.93,1.16,0,2.07.31,2.74.93.66.62,1,1.6,1,2.92v64.72c0,4.81.95,8.4,2.86,10.77,1.91,2.36,4.69,3.55,8.34,3.55.83,0,1.53-.04,2.12-.12.58-.08,1.16-.12,1.74-.12.75-.08,1.31.06,1.68.44.37.37.56,1.14.56,2.3s-.29,2.03-.87,2.61c-.58.58-1.54,1-2.86,1.25-.58.08-1.18.14-1.8.19-.62.04-1.27.06-1.93.06Z" style="fill: url(#_Безымянный_градиент_20);"/>
    <path d="m297.58,184.25c-5.56,0-9.85-1.74-12.88-5.23-3.03-3.48-4.54-8.42-4.54-14.81v-65.59c0-1.33.33-2.3,1-2.92.66-.62,1.62-.93,2.86-.93,1.16,0,2.07.31,2.74.93.66.62,1,1.6,1,2.92v64.72c0,4.81.95,8.4,2.86,10.77,1.91,2.36,4.69,3.55,8.34,3.55.83,0,1.54-.04,2.12-.12.58-.08,1.16-.12,1.74-.12.75-.08,1.31.06,1.68.44.37.37.56,1.14.56,2.3s-.29,2.03-.87,2.61c-.58.58-1.54,1-2.86,1.25-.58.08-1.18.14-1.8.19-.62.04-1.27.06-1.93.06Z" style="fill: url(#_Безымянный_градиент_20);"/>
    <path d="m339.02,184.25c-5.39,0-10.1-1.26-14.12-3.8-4.03-2.53-7.14-6.14-9.33-10.83-2.2-4.69-3.3-10.18-3.3-16.49s1.08-11.9,3.24-16.55c2.16-4.65,5.25-8.23,9.27-10.77,4.02-2.53,8.77-3.8,14.25-3.8,5.81,0,10.74,1.49,14.81,4.48,4.06,2.99,6.76,7.05,8.09,12.2h-1.37v-41.19c0-.91.23-1.6.68-2.05.46-.46,1.1-.68,1.93-.68s1.47.23,1.93.68c.46.46.68,1.14.68,2.05v83.76c0,.83-.23,1.49-.68,1.99-.46.5-1.1.75-1.93.75s-1.47-.25-1.93-.75c-.46-.5-.68-1.16-.68-1.99v-13.69h1.37c-1.33,5.06-4.03,9.11-8.09,12.13-4.07,3.03-9,4.54-14.81,4.54Zm.12-4.85c4.4,0,8.21-1.04,11.45-3.11,3.24-2.07,5.72-5.08,7.47-9.02,1.74-3.94,2.61-8.65,2.61-14.13,0-8.29-1.93-14.75-5.79-19.35-3.86-4.6-9.11-6.91-15.74-6.91-4.4,0-8.21,1.04-11.45,3.11-3.24,2.08-5.72,5.06-7.47,8.96-1.74,3.9-2.61,8.63-2.61,14.19,0,8.3,1.95,14.75,5.85,19.35,3.9,4.61,9.13,6.91,15.68,6.91Z" style="fill: url(#_Безымянный_градиент_20);"/>
    <path d="m389.55,184c-.83,0-1.47-.25-1.93-.75-.46-.5-.68-1.16-.68-1.99v-56.25c0-.91.23-1.6.68-2.05s1.1-.68,1.93-.68,1.45.23,1.87.68c.41.46.62,1.14.62,2.05v12.07h-1.25c1.58-4.89,4.38-8.67,8.4-11.33,4.02-2.65,8.69-3.98,14-3.98.75,0,1.39.15,1.93.44.54.29.81.85.81,1.68s-.21,1.47-.62,1.93c-.42.46-1.12.73-2.12.81l-1.49.12c-6.14.58-10.93,2.66-14.37,6.22-3.44,3.57-5.17,8.3-5.17,14.19v34.1c0,.83-.21,1.49-.62,1.99-.42.5-1.08.75-1.99.75Z" style="fill: url(#_Безымянный_градиент_20);"/>
    <path d="m430.25,106.59c-1.33,0-2.39-.39-3.17-1.18-.79-.79-1.18-1.85-1.18-3.17,0-1.41.39-2.47,1.18-3.17.79-.7,1.85-1.06,3.17-1.06,1.41,0,2.49.35,3.24,1.06.75.71,1.12,1.76,1.12,3.17,0,1.33-.37,2.39-1.12,3.17-.75.79-1.83,1.18-3.24,1.18Zm0,77.04c-.83,0-1.47-.25-1.93-.75-.46-.5-.68-1.16-.68-1.99v-55.51c0-.91.23-1.6.68-2.05s1.1-.68,1.93-.68,1.47.23,1.93.68c.46.46.68,1.14.68,2.05v55.51c0,.83-.21,1.49-.62,1.99-.42.5-1.08.75-1.99.75Z" style="fill: url(#_Безымянный_градиент_20);"/>
    <path d="m470.45,184.25c-5.23,0-9.27-1.68-12.13-5.04s-4.29-8.07-4.29-14.12v-67.58c0-.91.23-1.6.68-2.05.46-.46,1.1-.68,1.93-.68s1.47.23,1.93.68c.46.46.68,1.14.68,2.05v66.71c0,5.06,1,8.86,2.99,11.39,1.99,2.53,4.89,3.8,8.71,3.8.83,0,1.54-.04,2.12-.12.58-.08,1.16-.12,1.74-.12.66,0,1.18.12,1.56.37s.56.75.56,1.49c0,.91-.25,1.58-.75,1.99s-1.33.75-2.49,1c-.58.08-1.14.14-1.68.19-.54.04-1.06.06-1.56.06Z" style="fill: url(#_Безымянный_градиент_20);"/>
    <path d="m504.67,184.25c-5.23,0-9.27-1.68-12.13-5.04s-4.29-8.07-4.29-14.12v-67.58c0-.91.23-1.6.68-2.05.46-.46,1.1-.68,1.93-.68s1.47.23,1.93.68c.46.46.68,1.14.68,2.05v66.71c0,5.06,1,8.86,2.99,11.39,1.99,2.53,4.89,3.8,8.71,3.8.83,0,1.54-.04,2.12-.12.58-.08,1.16-.12,1.74-.12.66,0,1.18.12,1.56.37s.56.75.56,1.49c0,.91-.25,1.58-.75,1.99s-1.33.75-2.49,1c-.58.08-1.14.14-1.68.19-.54.04-1.06.06-1.56.06Z" style="fill: url(#_Безымянный_градиент_20);"/>
  </g>
</svg>